<svg id="Layer_2" data-name="Layer 2" xmlns="http://www.w3.org/2000/svg" viewBox="0 0 246.2 163"><defs><style>.cls-1{fill:#fff;}.cls-2{fill:#8263d6;}.cls-3,.cls-4,.cls-5{fill:none;stroke:#8263d6;stroke-linecap:round;stroke-miterlimit:10;stroke-width:4px;}.cls-3,.cls-7{opacity:0.5;}.cls-4,.cls-6{opacity:0.7;}</style></defs><path class="cls-1" d="M41.8,136v35.43H37v-23.6l-15.89,23h-.05L5.18,147.81v23.65H.4V136H1l20.15,27.66L41.27,136Z" transform="translate(-0.4 -9)"/><path class="cls-1" d="M82.49,158V136.68h4.8v21.25c0,5.85,4.61,10.1,10.85,10.1S109,163.76,109,157.93V136.68h4.8V158c0,8.12-6.66,14.05-15.65,14.05S82.49,166.07,82.49,158Z" transform="translate(-0.4 -9)"/><path class="cls-1" d="M174.72,140.56h-22v-3.88h29.72l-22,30.88h22v3.9H152.7Z" transform="translate(-0.4 -9)"/><path class="cls-1" d="M226.55,140.54v11h17.38v3.92H226.55v12.09h20v3.9H221.78V136.68H246.6v3.86Z" transform="translate(-0.4 -9)"/><rect class="cls-2" x="120.62" y="39.05" width="55.72" height="7.9" rx="3.95" transform="translate(12.68 108.58) rotate(-45)"/><rect class="cls-2" x="94.53" y="15.14" width="7.9" height="55.72" rx="3.95" transform="translate(-1.97 73.23) rotate(-45)"/><rect class="cls-2" x="174.07" y="12" width="8" height="84" rx="3.95"/><circle class="cls-2" cx="177.67" cy="4" r="4"/><rect class="cls-2" x="64.12" y="12" width="7.9" height="84" rx="3.95"/><circle class="cls-2" cx="68.67" cy="4" r="4"/><circle class="cls-2" cx="122.67" cy="59" r="4"/><path class="cls-3" d="M94.69,93.79s15.19,10.19,29,10.19c14.5,0,29-10.19,29-10.19" transform="translate(-0.4 -9)"/><path class="cls-4" d="M101.94,85.06s11.39,7.65,21.75,7.65c10.87,0,21.75-7.65,21.75-7.65" transform="translate(-0.4 -9)"/><path class="cls-5" d="M107.38,76s8.54,5.73,16.31,5.73C131.85,81.75,140,76,140,76" transform="translate(-0.4 -9)"/><g class="cls-6"><rect class="cls-2" x="192.12" y="26" width="7.9" height="46" rx="3.95"/><circle class="cls-2" cx="196.6" cy="79" r="4"/></g><g class="cls-6"><rect class="cls-2" x="46.12" y="26" width="7.9" height="46" rx="3.95"/><circle class="cls-2" cx="50.6" cy="79" r="4"/></g><g class="cls-7"><rect class="cls-2" x="29.1" y="60" width="7.9" height="21" rx="3.95" transform="translate(65.69 132) rotate(-180)"/><circle class="cls-2" cx="32.12" cy="44" r="4"/></g><g class="cls-7"><rect class="cls-2" x="211.1" y="60" width="7.9" height="21" rx="3.95" transform="translate(429.69 132) rotate(180)"/><circle class="cls-2" cx="214.12" cy="44" r="4"/></g></svg>